<?xml version="1.0" encoding="utf-8"?>
<!-- Generator: Adobe Illustrator 25.2.3, SVG Export Plug-In . SVG Version: 6.00 Build 0)  -->
<svg version="1.1" id="Layer_1" xmlns="http://www.w3.org/2000/svg" xmlns:xlink="http://www.w3.org/1999/xlink" x="0px" y="0px"
	 viewBox="0 0 145.1 141.4" style="enable-background:new 0 0 145.1 141.4;" xml:space="preserve">
<style type="text/css">
	.st0{fill:#4B4F55;}
	.st1{fill:#FFFFFF;}
</style>
<g>
	<circle class="st0" cx="72.6" cy="70.7" r="58.5"/>
	<g>
		<rect x="47.5" y="60.1" class="st1" width="11.7" height="33.4"/>
		<path class="st1" d="M53.3,43.4c-3.7,0-6.5,3.4-5.7,7.1c0.5,2.2,2.3,4,4.5,4.4c3.8,0.8,7-2.1,7-5.7C59.2,46,56.6,43.4,53.3,43.4z"
			/>
		<path class="st1" d="M97.5,70.3c-0.8-6.3-3.9-10.2-12.4-10.2c-6,0-8.4,0.9-9.8,3.6l0,0v-3.6h-9.4v33.4h9.7V76
			c0-4.4,0.8-7.7,6.2-7.7c5.3,0,5.7,4.1,5.7,7.9v17.2h10C97.5,93.4,97.7,71.8,97.5,70.3z"/>
	</g>
</g>
</svg>
