<?xml version="1.0" encoding="utf-8"?>
<!-- Generator: Adobe Illustrator 25.2.3, SVG Export Plug-In . SVG Version: 6.00 Build 0)  -->
<svg version="1.1" id="Layer_1" xmlns="http://www.w3.org/2000/svg" xmlns:xlink="http://www.w3.org/1999/xlink" x="0px" y="0px"
	 viewBox="0 0 145.1 141.4" style="enable-background:new 0 0 145.1 141.4;" xml:space="preserve">
<style type="text/css">
	.st0{fill:#4B4F55;}
	.st1{fill:#FFFFFF;}
</style>
<g>
	<circle class="st0" cx="72.6" cy="70.7" r="58.5"/>
	<g>
		<path class="st1" d="M76.5,70.8c0,10.4-8.4,18.8-18.7,18.8c-10.4,0-18.9-8.5-18.8-19c0-10.4,8.5-18.9,18.9-18.8
			C68.2,51.8,76.5,60.3,76.5,70.8z"/>
		<path class="st1" d="M97.4,69.8c0,5.3-0.8,9.6-2.8,13.6c-0.8,1.5-1.8,2.7-3.1,3.8c-2.2,1.8-5.2,1.7-7.4-0.3
			c-2.5-2.3-3.8-5.2-4.5-8.4c-1.7-6.9-1.4-13.7,1.7-20.3c0.7-1.5,1.7-2.8,3-3.9c2.3-2,5.3-1.9,7.6,0.1c2.8,2.5,4,5.9,4.8,9.4
			C97.2,66.1,97.5,68.4,97.4,69.8z"/>
		<path class="st1" d="M106.2,70.6c0.1,4.2-0.3,8.1-1.1,12c-0.2,0.9-0.5,1.7-0.8,2.5c-0.3,0.7-0.5,1.5-1.4,1.5
			c-0.9,0-1.1-0.8-1.4-1.5c-0.7-1.6-1-3.3-1.3-5c-1-7-0.9-14,0.4-20.9c0.2-1,0.5-2,0.9-2.9c0.3-0.6,0.5-1.4,1.4-1.4
			c0.8,0,1.1,0.8,1.4,1.5c0.9,1.9,1.1,4,1.4,6.1C106.1,65.1,106.2,67.9,106.2,70.6z"/>
	</g>
</g>
</svg>
