<?xml version="1.0" encoding="utf-8"?>
<!-- Generator: Adobe Illustrator 25.2.3, SVG Export Plug-In . SVG Version: 6.00 Build 0)  -->
<svg version="1.1" id="Layer_1" xmlns="http://www.w3.org/2000/svg" xmlns:xlink="http://www.w3.org/1999/xlink" x="0px" y="0px"
	 viewBox="0 0 145.1 141.4" style="enable-background:new 0 0 145.1 141.4;" xml:space="preserve">
<style type="text/css">
	.st0{fill:#4B4F55;}
	.st1{fill:#FFFFFF;}
</style>
<g>
	<circle class="st0" cx="72.6" cy="70.7" r="58.5"/>
	<path id="XMLID_40_" class="st1" d="M100.6,54.5c-1.8,0.7-3.8,1.2-5.8,1.5c2.2-1.3,3.8-3.2,4.7-5.6c0.1-0.1-0.1-0.3-0.2-0.2
		c-2,1.1-4.3,2-6.6,2.4c-2-2.1-4.9-3.4-8.1-3.4c-6.1,0-11.1,4.9-11.1,10.9c0,0.9,0.1,1.7,0.3,2.5c-9.2-0.5-17.3-4.8-22.8-11.3
		c0,0-0.1,0-0.1,0c-0.9,1.6-1.5,3.4-1.5,5.4c0,3.7,1.9,7,4.7,9c0.1,0,0,0.1,0,0.1c-1.7-0.1-3.3-0.6-4.7-1.3c0,0-0.1,0-0.1,0
		c0,0.5,0.2,2.6,0.7,4c1.4,3.4,4.4,6,8.1,6.8c-0.9,0.2-1.9,0.4-2.9,0.4c-0.7,0-1.3-0.1-2-0.2c0,0-0.1,0-0.1,0.1
		c1.4,4.2,5.4,7.3,10.1,7.5c0.1,0,0.1,0.1,0,0.1c-3.8,2.9-8.5,4.6-13.6,4.6c-0.9,0-1.8-0.1-2.6-0.1c4.9,3.1,10.7,4.9,17,4.9
		c8.6,0,15.6-3,20.8-7.5c5.2-4.6,8.6-10.7,10-17c0.5-2.2,0.8-4.4,0.8-6.6c0-0.5,0-0.9,0-1.4c2-1.4,3.8-3.2,5.2-5.2
		C100.9,54.6,100.7,54.5,100.6,54.5z"/>
</g>
</svg>
